<svg width="1024" height="1024" viewBox="0 0 1024 1024" fill="none" xmlns="http://www.w3.org/2000/svg">
<rect width="1024" height="1024" rx="64" fill="#2563EB"/>
<path d="M226.096 829.934C233.834 829.934 239.48 831.657 243.035 835.105C246.59 838.552 248.367 843.382 248.367 849.593C248.367 852.416 247.957 855.106 247.137 857.662C246.344 860.188 245.031 862.432 243.199 864.393C241.367 866.325 238.947 867.856 235.939 868.985C232.959 870.114 229.281 870.679 224.906 870.679H218.508V895.108H208.664V829.934H226.096ZM225.439 838.805H218.508V861.763H223.881C226.971 861.763 229.596 861.377 231.756 860.604C233.916 859.802 235.556 858.539 236.678 856.815C237.799 855.091 238.359 852.818 238.359 849.994C238.359 846.22 237.306 843.411 235.201 841.569C233.123 839.726 229.869 838.805 225.439 838.805Z" fill="white"/>
<path d="M293.161 829.934C298.329 829.934 302.595 830.617 305.958 831.984C309.349 833.351 311.864 835.432 313.505 838.225C315.173 841.019 316.007 844.57 316.007 848.88C316.007 852.089 315.46 854.824 314.366 857.082C313.272 859.341 311.837 861.213 310.059 862.699C308.282 864.185 306.382 865.374 304.358 866.266L321.38 895.108H310.265L295.786 868.985H286.147V895.108H276.304V829.934H293.161ZM292.505 838.849H286.147V860.158H292.956C297.522 860.158 300.831 859.237 302.882 857.394C304.96 855.552 305.999 852.832 305.999 849.236C305.999 845.462 304.891 842.787 302.677 841.212C300.489 839.637 297.099 838.849 292.505 838.849Z" fill="white"/>
<path d="M399.15 862.432C399.15 867.454 398.562 872.031 397.387 876.162C396.238 880.263 394.502 883.8 392.178 886.772C389.853 889.714 386.941 891.988 383.441 893.593C379.941 895.198 375.84 896 371.137 896C366.351 896 362.195 895.198 358.668 893.593C355.168 891.988 352.256 889.699 349.932 886.727C347.635 883.756 345.912 880.204 344.764 876.073C343.615 871.942 343.041 867.365 343.041 862.343C343.041 855.626 344.053 849.771 346.076 844.778C348.127 839.756 351.23 835.863 355.387 833.099C359.57 830.305 364.848 828.908 371.219 828.908C377.453 828.908 382.635 830.29 386.764 833.054C390.893 835.818 393.982 839.711 396.033 844.734C398.111 849.727 399.15 855.626 399.15 862.432ZM353.377 862.432C353.377 867.454 354.006 871.808 355.264 875.493C356.521 879.149 358.449 881.972 361.047 883.964C363.672 885.925 367.035 886.906 371.137 886.906C375.266 886.906 378.629 885.925 381.226 883.964C383.824 881.972 385.738 879.149 386.969 875.493C388.199 871.808 388.814 867.454 388.814 862.432C388.814 854.794 387.406 848.82 384.59 844.511C381.801 840.172 377.344 838.002 371.219 838.002C367.117 838.002 363.74 838.983 361.088 840.945C358.463 842.906 356.521 845.715 355.264 849.37C354.006 852.996 353.377 857.35 353.377 862.432Z" fill="white"/>
<path d="M475.531 895.108H465.77V829.934H499.648V838.939H475.531V859.267H498.09V868.227H475.531V895.108Z" fill="white"/>
<path d="M579.757 862.432C579.757 867.454 579.169 872.031 577.993 876.162C576.845 880.263 575.108 883.8 572.784 886.772C570.46 889.714 567.548 891.988 564.048 893.593C560.548 895.198 556.446 896 551.743 896C546.958 896 542.802 895.198 539.274 893.593C535.774 891.988 532.862 889.699 530.538 886.727C528.241 883.756 526.519 880.204 525.37 876.073C524.222 871.942 523.647 867.365 523.647 862.343C523.647 855.626 524.659 849.771 526.683 844.778C528.733 839.756 531.837 835.863 535.993 833.099C540.177 830.305 545.454 828.908 551.825 828.908C558.06 828.908 563.241 830.29 567.37 833.054C571.499 835.818 574.589 839.711 576.64 844.734C578.718 849.727 579.757 855.626 579.757 862.432ZM533.983 862.432C533.983 867.454 534.612 871.808 535.87 875.493C537.128 879.149 539.056 881.972 541.653 883.964C544.278 885.925 547.642 886.906 551.743 886.906C555.872 886.906 559.235 885.925 561.833 883.964C564.431 881.972 566.345 879.149 567.575 875.493C568.806 871.808 569.421 867.454 569.421 862.432C569.421 854.794 568.013 848.82 565.196 844.511C562.407 840.172 557.95 838.002 551.825 838.002C547.724 838.002 544.347 838.983 541.694 840.945C539.069 842.906 537.128 845.715 535.87 849.37C534.612 852.996 533.983 857.35 533.983 862.432Z" fill="white"/>
<path d="M655.682 829.934V872.105C655.682 876.653 654.793 880.724 653.016 884.32C651.266 887.916 648.613 890.769 645.059 892.879C641.504 894.96 637.033 896 631.647 896C623.963 896 618.111 893.816 614.092 889.447C610.1 885.048 608.104 879.208 608.104 871.927V829.934H617.947V870.991C617.947 876.43 619.123 880.442 621.475 883.027C623.826 885.613 627.34 886.906 632.016 886.906C635.242 886.906 637.867 886.297 639.891 885.078C641.941 883.83 643.445 882.017 644.402 879.639C645.387 877.232 645.879 874.334 645.879 870.946V829.934H655.682Z" fill="white"/>
<path d="M737.021 895.108H724.921L695.554 843.084H695.185C695.294 844.838 695.39 846.695 695.472 848.657C695.581 850.618 695.663 852.639 695.718 854.72C695.8 856.8 695.868 858.91 695.923 861.05V895.108H686.982V829.934H698.999L728.325 881.601H728.612C728.558 880.085 728.489 878.347 728.407 876.385C728.325 874.424 728.243 872.403 728.161 870.322C728.107 868.212 728.066 866.176 728.038 864.215V829.934H737.021V895.108Z" fill="white"/>
<path d="M817.416 861.897C817.416 869.238 816.158 875.375 813.643 880.308C811.127 885.212 807.477 888.912 802.692 891.408C797.906 893.875 792.137 895.108 785.383 895.108H768.731V829.934H787.188C793.395 829.934 798.754 831.152 803.266 833.589C807.777 835.996 811.264 839.577 813.725 844.333C816.186 849.058 817.416 854.913 817.416 861.897ZM807.162 862.209C807.162 856.859 806.383 852.461 804.824 849.013C803.293 845.566 801.024 843.01 798.016 841.346C795.035 839.652 791.358 838.805 786.983 838.805H778.574V886.148H785.547C792.793 886.148 798.207 884.142 801.789 880.13C805.371 876.118 807.162 870.144 807.162 862.209Z" fill="white"/>
<path d="M511.25 728C836 728 896 832.341 896 832.341C896 832.341 800 754.085 512 754.085C224 754.085 128 832.341 128 832.341C128 832.341 188 728 511.25 728Z" fill="white"/>
<path d="M205.625 128L189.5 224H878L896.75 128H205.625Z" fill="white"/>
<path d="M556.625 361.25L512.375 680H608.375L639.298 457.25H845.75L863 361.25H556.625Z" fill="white"/>
<path fill-rule="evenodd" clip-rule="evenodd" d="M167 393.5L128 680H224L249.935 489.5H297.5C418.395 489.5 516.565 392.207 517.984 271.649L518 269H422C422 337.759 366.259 393.5 297.5 393.5H167ZM517.984 271.649C517.995 270.767 518 269.884 518 269L517.984 271.649Z" fill="white"/>
</svg>
